# xmcd
#
# Track frame offsets: 
#        150
#        22144
#        41382
#        57551
#        76152
#        91884
#        107854
#        126479
#        141884
#        161423
#        180995
#        204453
#        222607
#        248699
#        267427
#        287421
#        307729
#
# Disc length: 4310 seconds
#
# Revision: 2
# Processed by: cddbd v1.5.2PL0 Copyright (c) Steve Scherf et al.
# Submitted via: ExactAudioCopy v0.99pb4
#
DISCID=ef10d411
DTITLE=AC DC - Collection [CD 1)
DYEAR=2003
DGENRE=Rock
TTITLE0=Thunder Struk
TTITLE1=Black In Black
TTITLE2=Stiff Upper Lip
TTITLE3=Mean Streak
TTITLE4=You Shook Me All Night Long
TTITLE5=T.N.T.
TTITLE6=Shake Your Foundations
TTITLE7=Who Made Who
TTITLE8=Big Gun
TTITLE9=The Razors Edge
TTITLE10=Hells Bells
TTITLE11=Can't Stop Rock'n'Roll
TTITLE12=The Jack
TTITLE13=Are You Ready
TTITLE14=Nervous Shakedown
TTITLE15=Ballbreaker
TTITLE16=Highway To Hell
EXTD=
EXTT0=
EXTT1=
EXTT2=
EXTT3=
EXTT4=
EXTT5=
EXTT6=
EXTT7=
EXTT8=
EXTT9=
EXTT10=
EXTT11=
EXTT12=
EXTT13=
EXTT14=
EXTT15=
EXTT16=
PLAYORDER=
